<svg xmlns="http://www.w3.org/2000/svg" viewBox="0 0 443.12 364.71" fill="currentColor">
  <path opacity=".45"
    d="M430.2 333.88H12.95c-17.81 4.79-16.96 27.2.8 30.78l415.54-.11c18.15-3.79 18.41-26.33.91-30.67zm-224.4-94.19c-2.93 11.12-2.21 20.88 0 32H13.3C6.06 270.73.27 262.81 0 255.97c.15-7.25 6.43-14.5 13.3-16.28h192.5zm105 32c3.81-10.91 3.73-20.87 1-32h118.5c16.96 4.81 17.23 27.38 0 32H310.8zm-53.22-54.73c-14.51.41-28.66 10.41-34.27 23.74-15.56 36.95 29.65 69.06 59.96 43.96 28.54-23.63 10.1-68.72-25.7-67.7zm12.15 54.16c-17.23 11.78-39.7-8.59-27.37-26.37 2.17-3.14 7.37-7.13 11.17-7.83 22.4-4.12 33.87 22.12 16.2 34.2zM388.92.69c9.06-.54 30.22.45 38.11 4.3 13.38 6.53 11.59 29.63-2.83 32.97s-30.51-4.25-47.05 1.95c-36.49 13.67-35.45 93.25 10.5 97.47 10.82.99 22.53-2.47 31.69-1.78 18.97 1.42 23.17 30.26 5.03 35.53-9.87 2.87-32.21 3.11-42.72 2.25C293.67 166.2 288.73 6.7 388.93.69zm-368.07.94c10.81-2 20.68 2.22 23.03 13.5 2.94 36.7-3.09 77.61.19 113.81.37 4.09 1.04 6.9 5.5 7.5 18.24 2.46 42.12-1.79 61.09-.09 23.36 2.09 24.17 35 0 37.08-18.66 1.6-54.4 1.62-73.02-.05-16.09-1.44-28.2-13.24-29.55-29.45-3.39-40.63 2.61-85.91.03-127.04.55-6.54 6.18-14.05 12.74-15.26z" />
  <path opacity=".45"
    d="M262.13 104.86c.04-2.53 6.38-5.6 8.45-7.5 36.37-33.34 12.81-94.48-38.01-97-13.02-.65-31.33-.34-44.62.28-16.37.76-28.09 12.21-29.71 28.38-3.98 39.8 2.75 85.49-.16 125.91 2.14 25.01 33.14 23.03 35.97 4.9 2.17-13.91-1.9-32.08.56-46.44.93-1.67 2.26-1.82 3.96-2.04 3.93-.51 20.47-.64 24.05.04.79.15 1.51.27 2.01.99l30.97 54.03c7.94 9.7 23.98 9.92 30.08-1.96 4.86-9.46 1.28-14.7-3.04-23.08-2.85-5.53-20.55-33.49-20.51-36.51zm-13.5-38.45c-1.9 3.98-8.75 8.99-13.01 8.99h-40c-1-.08-1.5-.14-1.5-1.5-.23-8.5-.17-25.61 0-34 .06-.81 1.52-1.73 2.02-1.98 2.27-1.06 31.01-.94 35.52-.55 15.52 1.32 23.7 14.94 16.98 29.05z" />
</svg>