<svg xmlns="http://www.w3.org/2000/svg" viewBox="0 0 480.29 365.42" fill="currentColor">
  <path
    d="M19.58 248.6c94.52-.03 297.92-.77 300.9-.09 17.6 5.78 17.92 28.73-.33 34.71-73.69 1.55-301.18.09-301.18.09-25.66-1.76-25.14-33.75.6-34.71z"
    opacity=".3" />
  <path opacity=".75"
    d="M238.97 113.67h-31v51.5c0 5.01-11.41 12.37-16.53 12.54-23.42.78-19.39-28.41-19.51-43.58-.25-31.04-1.6-65.97 0-97 .67-13 1.88-25.55 14.72-32.28C197.99-1.1 234.68-.3 248.46.68c58.63 4.16 73.37 73.49 27.74 105.47l26.3 47.48c4.63 17.49-13.45 30.84-28.02 20.02-4.12-3.06-7.53-10.16-10.31-14.69-9-14.67-16.98-30.18-25.2-45.3zm-31-36c0 1.78 32.63 1.22 35.48.98 16.9-1.41 25.76-10.48 22.07-28.04-1.08-5.16-9.95-13.94-15.06-13.94h-41l-1.5 1.5v39.5zM405.75.95c10.31-1.09 34.51-1.03 43.95 2.5 11.86 4.44 14.98 19.78 6.81 29.25-9.04 10.49-24.39 2.95-36.01 2.89-66.87-.31-67.76 106.54-.02 107.08 12.45.1 28.48-8.89 37.34 4.66 6.94 10.63 2.37 24.39-9.8 27.88-21.2 6.07-53.41 2.54-72.71-8.37C307.81 128.72 325.98 9.41 405.75.95zM56.97 142.67h68.5c.62 0 4.33 2.14 5.24 2.76 12.93 8.67 7.82 29.45-7.48 32.01-26.43-1.5-56.78 2.83-82.75.23-10.35-1.04-18.41-7.9-19.57-18.43l.29-143.82C24.01-1.3 47.76-4.53 54.72 10.43c.38.83 2.26 6.39 2.26 6.74v125.5z" />
  <path
    d="M464.03 330.19c21.51 5.82 21.95 28.76-.34 34.71-90.04 1.41-368.02-.48-368.02-.48-21.7-4.48-21.14-30.08.67-34.7 115.5.15 364.03-.2 367.68.48z"
    opacity=".3" />
</svg>
